<svg width="0" height="0" class="hidden">
    <symbol xmlns="http://www.w3.org/2000/svg" viewBox="0 0 20 20" id="search">
        <path fill-rule="evenodd" clip-rule="evenodd"
              d="M7.33325 2.66668C4.75592 2.66668 2.66659 4.75601 2.66659 7.33334C2.66659 9.91067 4.75592 12 7.33325 12C9.91058 12 11.9999 9.91067 11.9999 7.33334C11.9999 4.75601 9.91058 2.66668 7.33325 2.66668ZM1.33325 7.33334C1.33325 4.01963 4.01954 1.33334 7.33325 1.33334C10.647 1.33334 13.3333 4.01963 13.3333 7.33334C13.3333 10.6471 10.647 13.3333 7.33325 13.3333C4.01954 13.3333 1.33325 10.6471 1.33325 7.33334Z"></path>
        <path fill-rule="evenodd" clip-rule="evenodd"
              d="M10.6286 10.6286C10.889 10.3682 11.3111 10.3682 11.5714 10.6286L14.4714 13.5286C14.7318 13.7889 14.7318 14.211 14.4714 14.4714C14.2111 14.7317 13.789 14.7317 13.5286 14.4714L10.6286 11.5714C10.3683 11.311 10.3683 10.8889 10.6286 10.6286Z"></path>
    </symbol>
    <symbol xmlns="http://www.w3.org/2000/svg" viewBox="0 0 8 8" id="stars">
        <path fill-rule="evenodd" clip-rule="evenodd"
              d="M4.00005 0.333328C4.12692 0.333328 4.2428 0.405352 4.29895 0.51912L5.25147 2.44882L7.38159 2.76017C7.50711 2.77851 7.61134 2.86652 7.65047 2.98718C7.68959 3.10785 7.65683 3.24027 7.56596 3.32878L6.02489 4.82978L6.38859 6.95031C6.41004 7.07538 6.35862 7.20177 6.25596 7.27635C6.1533 7.35092 6.0172 7.36075 5.9049 7.30169L4.00005 6.29994L2.0952 7.30169C1.9829 7.36075 1.8468 7.35092 1.74414 7.27635C1.64148 7.20177 1.59006 7.07538 1.61151 6.95031L1.97521 4.82978L0.434139 3.32878C0.343267 3.24027 0.310509 3.10785 0.349635 2.98718C0.388761 2.86652 0.492988 2.77851 0.618508 2.76017L2.74863 2.44882L3.70115 0.51912C3.7573 0.405352 3.87318 0.333328 4.00005 0.333328ZM4.00005 1.41975L3.26895 2.90087C3.22044 2.99915 3.12671 3.06731 3.01826 3.08316L1.38285 3.3222L2.56596 4.47454C2.64459 4.55112 2.68047 4.6615 2.66192 4.76968L2.38278 6.39722L3.8449 5.6283C3.94203 5.57723 4.05807 5.57723 4.1552 5.6283L5.61732 6.39722L5.33818 4.76968C5.31963 4.6615 5.35552 4.55112 5.43414 4.47454L6.61725 3.3222L4.98184 3.08316C4.87339 3.06731 4.77966 2.99915 4.73115 2.90087L4.00005 1.41975Z"></path>
        <path d="M2.33333 5L1 3L3 2.66667L4 1L5 2.66667L7 3.33333L5.66667 4.66667L6 7L4 6L2 7L2.33333 5Z"></path>
    </symbol>
    <symbol xmlns="http://www.w3.org/2000/svg" viewBox="0 0 30 30" id="arrow-next">
        <path fill-rule="evenodd" clip-rule="evenodd"
              d="M10.3661 6.61612C10.8543 6.12796 11.6457 6.12796 12.1339 6.61612L19.6339 14.1161C20.122 14.6043 20.122 15.3957 19.6339 15.8839L12.1339 23.3839C11.6457 23.872 10.8543 23.872 10.3661 23.3839C9.87796 22.8957 9.87796 22.1043 10.3661 21.6161L16.9822 15L10.3661 8.38388C9.87796 7.89573 9.87796 7.10427 10.3661 6.61612Z"
              fill-opacity="0.8"></path>
    </symbol>
    <symbol xmlns="http://www.w3.org/2000/svg" viewBox="0 0 30 30" id="arrow-pev">
        <path fill-rule="evenodd" clip-rule="evenodd"
              d="M19.6339 6.61612C20.122 7.10427 20.122 7.89573 19.6339 8.38388L13.0178 15L19.6339 21.6161C20.122 22.1043 20.122 22.8957 19.6339 23.3839C19.1457 23.872 18.3543 23.872 17.8661 23.3839L10.3661 15.8839C9.87796 15.3957 9.87796 14.6043 10.3661 14.1161L17.8661 6.61612C18.3543 6.12796 19.1457 6.12796 19.6339 6.61612Z"
               fill-opacity="0.8"></path>
    </symbol>
</svg>

